<svg width="30" height="30" viewBox="0 0 30 30" fill="none" xmlns="http://www.w3.org/2000/svg">
<path fill-rule="evenodd" clip-rule="evenodd" d="M0.484174 12.3197C-0.126256 11.7565 -0.164693 10.7965 0.39851 10.1861C2.23033 8.20081 4.42835 6.61696 6.8941 5.51329C9.45312 4.36784 12.1968 3.78864 14.9999 3.78864C17.8031 3.78864 20.5467 4.36778 23.1059 5.51329C25.5717 6.61702 27.7699 8.20075 29.6016 10.1861C30.1648 10.7965 30.1261 11.7565 29.5157 12.3197C29.237 12.5771 28.8715 12.7199 28.4922 12.7196C28.2836 12.7198 28.0773 12.6768 27.8862 12.5932C27.6952 12.5096 27.5235 12.3872 27.3822 12.2339C24.2027 8.7881 19.6889 6.80821 14.9999 6.80821C10.3109 6.80821 5.79716 8.78821 2.61763 12.2339C2.05455 12.844 1.09437 12.8827 0.484174 12.3197ZM14.9998 21.0951C16.411 21.0951 17.5581 22.2423 17.5581 23.6534C17.5581 25.0644 16.4108 26.2114 14.9998 26.2114C13.5889 26.2114 12.4417 25.0644 12.4417 23.6534C12.4417 22.2423 13.5888 21.0951 14.9998 21.0951ZM19.1393 20.3318C18.1253 19.0703 16.6188 18.3457 14.9998 18.3457C13.3811 18.3457 11.8743 19.0702 10.8605 20.3317C10.3405 20.9789 9.38515 21.0829 8.73798 20.5628C8.09064 20.0425 7.98675 19.0873 8.50706 18.4399C10.0958 16.4634 12.4635 15.3262 14.9998 15.3262C17.5362 15.3262 19.904 16.4633 21.4928 18.4399C22.0131 19.0873 21.9091 20.0424 21.2619 20.5627C20.994 20.7784 20.6604 20.8959 20.3166 20.8958C20.0906 20.8959 19.8676 20.8453 19.6638 20.7477C19.46 20.65 19.2808 20.5079 19.1393 20.3318ZM23.2798 16.2971C23.8278 16.9134 24.795 16.9698 25.4112 16.4219C26.0276 15.874 26.0841 14.9067 25.5362 14.2904C22.863 11.2844 19.0231 9.55737 14.9999 9.55737C10.9768 9.55737 7.13691 11.2844 4.46374 14.2904C3.91572 14.9067 3.97232 15.874 4.58867 16.4219C4.86483 16.6678 5.22178 16.8036 5.59156 16.8034C5.80479 16.8036 6.01564 16.7586 6.21019 16.6713C6.40474 16.584 6.57856 16.4565 6.72019 16.2971C8.82072 13.9349 11.8384 12.5769 15 12.5769C18.1614 12.5769 21.1793 13.9348 23.2798 16.2971Z" fill="#CDB990"/>
<path fill-rule="evenodd" clip-rule="evenodd" d="M14.9999 3.78856C17.8031 3.78856 20.5467 4.3677 23.1059 5.5132C25.5717 6.61693 27.7699 8.20066 29.6016 10.1861C30.1648 10.7964 30.1261 11.7564 29.5157 12.3196C29.237 12.577 28.8715 12.7198 28.4921 12.7195C28.2836 12.7198 28.0773 12.6767 27.8862 12.5931C27.6951 12.5095 27.5235 12.3871 27.3821 12.2338C24.2027 8.78801 19.6888 6.80813 14.9999 6.80813V3.78856ZM14.9999 26.2114V21.0951C16.411 21.0951 17.5581 22.2423 17.5581 23.6534C17.5582 25.0644 16.4108 26.2114 14.9999 26.2114ZM14.9999 18.3456V15.3261C17.5362 15.3261 19.9041 16.4632 21.4928 18.4398C22.0131 19.0872 21.9091 20.0422 21.2619 20.5626C20.994 20.7782 20.6605 20.8958 20.3166 20.8956C20.0907 20.8958 19.8676 20.8452 19.6639 20.7476C19.4601 20.65 19.2809 20.5078 19.1394 20.3317C18.1253 19.0703 16.6188 18.3456 14.9999 18.3456ZM14.9999 12.5769C18.1614 12.5769 21.1793 13.9348 23.2798 16.2971C23.8278 16.9134 24.7949 16.9699 25.4112 16.422C26.0276 15.874 26.0841 14.9067 25.5361 14.2904C22.863 11.2844 19.0231 9.5574 14.9999 9.5574V12.5769Z" fill="#988220"/>
</svg>
