<svg width="30" height="30" viewBox="0 0 30 30" fill="none" xmlns="http://www.w3.org/2000/svg">
<path d="M29.9492 11.3706C29.8437 11.0191 29.545 10.7906 29.1759 10.7554L19.4096 10.1227L15.7889 1.0184C15.6659 0.702035 15.332 0.543794 14.998 0.526218C14.6465 0.526218 14.2949 0.684459 14.1544 1.0184L10.5338 10.1227L0.831026 10.7554C0.461875 10.7906 0.163145 11.0191 0.0401137 11.3706C-0.0653412 11.7046 0.0401138 12.0912 0.321268 12.3197L7.79199 18.5767L5.36653 28.0677C5.27859 28.4016 5.4192 28.7706 5.70047 28.9815C5.9992 29.1924 6.38587 29.21 6.68471 29.0167L14.998 23.7967L23.2411 29.0167C23.5574 29.2101 23.9442 29.1924 24.2429 28.9815C24.5241 28.7706 24.6647 28.4191 24.5768 28.0677L22.1514 18.5767L29.6855 12.3197C29.9668 12.0912 30.0722 11.7046 29.9492 11.3706Z" fill="#CDB990"/>
<path d="M29.6855 12.3197L22.1514 18.5766L24.5769 28.0677C24.6648 28.4191 24.5241 28.7706 24.2429 28.9815C23.9442 29.1924 23.5575 29.21 23.2411 29.0167L14.998 23.7967V0.526276C15.332 0.543851 15.6659 0.702093 15.789 1.01846L19.4096 10.1227L29.1759 10.7555C29.545 10.7907 29.8438 11.0192 29.9492 11.3707C30.0722 11.7046 29.9668 12.0912 29.6855 12.3197Z" fill="#988220"/>
<path d="M15.8768 28.5949C15.8768 29.087 15.4902 29.4737 14.9981 29.4737C14.5059 29.4737 14.1193 29.087 14.1193 28.5949C14.1193 28.1027 14.5059 27.7161 14.9981 27.7161C15.4902 27.7161 15.8768 28.1027 15.8768 28.5949Z" fill="#274754"/>
<path d="M27.5342 20.363C27.6841 19.9014 27.4315 19.4056 26.9699 19.2557C26.5083 19.1057 26.0126 19.3583 25.8626 19.8199C25.7126 20.2815 25.9653 20.7773 26.4269 20.9273C26.8884 21.0772 27.3842 20.8246 27.5342 20.363Z" fill="#274754"/>
<path d="M22.9408 6.85545C23.2261 6.46281 23.139 5.91324 22.7464 5.62795C22.3537 5.34267 21.8042 5.4297 21.5189 5.82235C21.2336 6.21499 21.3206 6.76456 21.7133 7.04985C22.1059 7.33513 22.6555 7.2481 22.9408 6.85545Z" fill="#274754"/>
<path d="M8.28289 7.04916C8.67553 6.76387 8.76255 6.2143 8.47726 5.82165C8.19197 5.42901 7.6424 5.34199 7.24976 5.62728C6.85712 5.91257 6.77009 6.46214 7.05538 6.85479C7.34067 7.24743 7.89025 7.33445 8.28289 7.04916Z" fill="#274754"/>
<path d="M3.56831 20.9297C4.0299 20.7797 4.28253 20.2839 4.13256 19.8223C3.9826 19.3608 3.48684 19.1081 3.02524 19.2581C2.56365 19.4081 2.31102 19.9038 2.46099 20.3654C2.61095 20.827 3.10671 21.0796 3.56831 20.9297Z" fill="#274754"/>
<path d="M15.8768 28.5949C15.8768 29.087 15.4902 29.4737 14.998 29.4737V27.7161C15.4902 27.7161 15.8768 28.1027 15.8768 28.5949Z" fill="#274754"/>
<path d="M20.921 14.3058C20.8156 13.9543 20.4992 13.7257 20.1477 13.6906L16.9665 13.4972L15.7889 10.5269C15.6659 10.2106 15.332 10.0524 14.998 10.0349C14.6465 10.0173 14.2949 10.1754 14.1544 10.5269L12.9768 13.4972L9.79558 13.6906C9.44413 13.7258 9.1277 13.9543 9.02225 14.3058C8.89933 14.6397 9.02225 15.0263 9.28594 15.2548L11.7466 17.2937L10.9557 20.3694C10.8678 20.7209 11.0084 21.09 11.2896 21.3009C11.5884 21.5118 11.9751 21.5294 12.2739 21.3361L14.9981 19.6312L17.6697 21.3361C17.9685 21.5294 18.3551 21.5118 18.654 21.3009C18.9351 21.09 19.0758 20.7208 18.9879 20.3694L18.197 17.2937L20.64 15.2548C20.921 15.0263 21.0265 14.6397 20.921 14.3058Z" fill="#F0ECDE"/>
<path d="M20.6399 15.2548L18.1969 17.2937L18.9878 20.3694C19.0757 20.7209 18.935 21.09 18.6539 21.3009C18.355 21.5118 17.9684 21.5294 17.6696 21.3361L14.998 19.6312V10.0349C15.332 10.0524 15.6659 10.2106 15.789 10.5269L16.9665 13.4972L20.1477 13.6906C20.4992 13.7258 20.8156 13.9543 20.921 14.3058C21.0266 14.6397 20.9211 15.0263 20.6399 15.2548Z" fill="#DFD8BA"/>
</svg>
