<svg width="30" height="30" viewBox="0 0 30 30" fill="none" xmlns="http://www.w3.org/2000/svg">
<g clip-path="url(#clip0_137_977)">
<path d="M4.125 20.75H4.6875V26.1875H6.3125V22.9375H10.5625V26.1875H12.1875V20.75H12.75L8.4375 17.5625L4.125 20.75Z" fill="#CDB990"/>
<path d="M7.75 24.3125H9.125V26.1875H7.75V24.3125Z" fill="#CDB990"/>
<path d="M29.6875 12.25C29.6875 9.4375 27.5625 7.125 24.75 6.8125V6.0625C24.75 2.875 22.125 0.3125 18.875 0.3125H13.625C10.375 0.3125 7.75 2.875 7.75 6.0625V6.125H7.6875L0.8125 10.875C0.5 11.125 0.3125 11.4375 0.3125 11.875V28.5C0.3125 29.1875 0.875 29.6875 1.5625 29.6875H15.4375C16.125 29.6875 16.6875 29.125 16.6875 28.5V11.875C16.6875 11.5 16.5 11.125 16.1875 10.875L9.1875 6.125H9.125V6.0625C9.125 3.625 11.1875 1.625 13.6875 1.625H18.9375C21.4375 1.625 23.5 3.625 23.5 6.0625V6.875C20.75 7.1875 18.5625 9.5 18.5625 12.3125C18.5625 14.5 19.875 16.4375 21.8125 17.25V27.5L24.125 29.6875L26.4375 27.5V25.4375L25.3125 24.3125L26.4375 23.1875V21.6875L25.6875 20.9375L26.4375 20.1875V17.25C28.375 16.375 29.6875 14.5 29.6875 12.25ZM15.3125 21.5625C15.1875 21.875 14.875 22.125 14.5 22.125H13.625V27.5625H3.3125V22.125H2.375C2 22.125 1.6875 21.875 1.5625 21.5625C1.5 21.25 1.625 20.875 1.875 20.625L8.4375 15.75L15 20.625C15.3125 20.875 15.4375 21.25 15.3125 21.5625ZM10.375 11.5C10.375 12.5 9.5 13.375 8.5 13.375C7.5 13.375 6.625 12.5625 6.625 11.5C6.625 10.6875 7.125 10.0625 7.875 9.75V11.5625H9.1875V9.75C9.8125 10.0625 10.375 10.6875 10.375 11.5ZM24.125 12.5C23.25 12.5 22.5625 11.8125 22.5625 11C22.5625 10.3125 23 9.75 23.625 9.5625H24.5625C25.1875 9.75 25.625 10.3125 25.625 11C25.6875 11.8125 25 12.5 24.125 12.5Z" fill="#988220"/>
</g>
<defs>
<clipPath id="clip0_137_977">
<rect width="30" height="30" fill="white"/>
</clipPath>
</defs>
</svg>
